<svg width="50" height="18" viewBox="0 0 50 18" fill="none" xmlns="http://www.w3.org/2000/svg">
<path d="M6.02019 17.7246C4.56019 17.6666 3.36569 17.2671 2.43169 16.5251C2.25344 16.3833 1.82869 15.9583 1.68619 15.7791C1.30744 15.3028 1.04994 14.8393 0.878187 14.3251C0.349687 12.7421 0.621687 10.6648 1.65619 8.38506C2.54194 6.43331 3.90869 4.49757 6.29319 1.81657C6.64444 1.42207 7.69044 0.268311 7.69719 0.268311C7.69969 0.268311 7.64269 0.367062 7.57094 0.487312C6.95094 1.52581 6.42044 2.74906 6.13144 3.80806C5.66719 5.50731 5.72319 6.96556 6.29543 8.09631C6.69019 8.87531 7.36694 9.55007 8.12794 9.92307C9.46019 10.5758 11.4107 10.6298 13.7927 10.0811C13.9567 10.0431 22.0832 7.88581 31.8517 5.28706C41.6202 2.68806 49.6139 0.563314 49.6152 0.565064C49.6179 0.567314 26.9202 10.2798 15.1374 15.3186C13.2714 16.1163 12.7724 16.3178 11.8952 16.6258C9.65269 17.4133 7.64394 17.7891 6.02019 17.7246Z" fill="white"/>
</svg>
