<svg width="87" height="16" viewBox="0 0 87 16" fill="none" xmlns="http://www.w3.org/2000/svg">
<path fill-rule="evenodd" clip-rule="evenodd" d="M49.7285 2.63638H45.7854V0H49.7285V2.63638ZM27.3392 15.7501H31.2817V0.000718061H27.3392V15.7501ZM8.48771 4.52874C9.04295 5.22311 9.32053 6.28895 9.32053 7.7256C9.32053 9.26333 9.02647 10.406 8.44041 11.1529C7.85367 11.901 6.93218 12.2738 5.67469 12.2738H4.7533V3.48848H5.9576C7.0897 3.48848 7.9318 3.83502 8.48771 4.52874ZM11.5047 13.6258C12.9118 12.2101 13.6154 10.1933 13.6154 7.57598C13.6154 5.14371 12.9466 3.28505 11.6097 1.99737C10.2721 0.710353 8.37408 0.0665211 5.91555 0.0665211H0.615234V15.7503H5.56971C8.11949 15.7503 10.0976 15.0421 11.5047 13.6258ZM83.9256 11.4643C82.674 11.4643 81.6575 12.4802 81.6575 13.7325C81.6575 14.9847 82.674 16 83.9256 16C85.1778 16 86.1932 14.9847 86.1932 13.7325C86.1932 12.4802 85.1778 11.4643 83.9256 11.4643ZM37.2132 12.1719C36.9513 11.6455 36.82 10.8796 36.82 9.8755C36.82 8.87003 36.9513 8.11462 37.2132 7.60861C37.4757 7.10325 37.9083 6.84924 38.5134 6.84924C39.1322 6.84924 39.5686 7.10456 39.8246 7.61451C40.0799 8.12314 40.2072 8.8766 40.2072 9.8755C40.2072 10.8796 40.0819 11.6455 39.8298 12.1719C39.5778 12.6989 39.1453 12.9621 38.5336 12.9621C37.9154 12.9621 37.4757 12.6989 37.2132 12.1719ZM42.713 14.3508C43.7184 13.2811 44.2199 11.7886 44.2199 9.8755C44.2199 8.65673 43.9869 7.5909 43.5196 6.67994C43.053 5.76768 42.3888 5.06739 41.5284 4.57845C40.6686 4.0895 39.6763 3.84468 38.5546 3.84468C36.7393 3.84468 35.3296 4.373 34.3242 5.42966C33.3187 6.48631 32.8166 7.96827 32.8166 9.8755C32.8166 11.7407 33.3291 13.22 34.3549 14.3147C35.3794 15.4095 36.7597 15.9568 38.4936 15.9568C40.3017 15.9568 41.7082 15.4213 42.713 14.3508ZM45.7855 15.7501H49.7286V9.72261V4.05146H45.7855V15.7501ZM57.7171 12.7662C58.2494 12.7662 58.8833 12.6311 59.6229 12.3626V15.3061C59.0913 15.5398 58.586 15.7071 58.1056 15.8062C57.6252 15.9067 57.0614 15.9565 56.4162 15.9565C55.0924 15.9565 54.1382 15.6238 53.5521 14.9596C52.9686 14.2954 52.6759 13.2755 52.6759 11.8993V7.07672H51.2951V4.05246H52.6759V1.06495L56.6493 0.373837V4.05246H59.1649V7.07672H56.6493V11.6302C56.6493 12.3876 57.0056 12.7662 57.7171 12.7662ZM68.7488 12.3626C68.0092 12.6311 67.3751 12.7662 66.8428 12.7662C66.1308 12.7662 65.7744 12.3876 65.7744 11.6302V7.07672H68.2913V4.05246H65.7744V0.373837L61.8018 1.01966V4.05246H60.4203V7.07672H61.8018V11.8993C61.8018 13.2755 62.0945 14.2954 62.6793 14.9596C63.2641 15.6238 64.2183 15.9565 65.542 15.9565C66.1885 15.9565 66.7503 15.9067 67.2314 15.8062C67.7118 15.7071 68.2179 15.5398 68.7488 15.3061V12.3626ZM73.724 8.45027C73.7778 7.80972 73.9611 7.34046 74.2734 7.04052C74.5872 6.74125 74.9744 6.59162 75.4377 6.59162C75.9431 6.59162 76.3447 6.75962 76.6426 7.09827C76.9426 7.43496 77.0988 7.88585 77.1113 8.45027H73.724ZM79.2843 5.22389C78.3471 4.30506 77.0174 3.84497 75.2972 3.84497C73.4891 3.84497 72.0978 4.37329 71.1225 5.42995C70.1479 6.4866 69.6602 8.00269 69.6602 9.97817C69.6602 11.8913 70.1872 13.3667 71.2386 14.4023C72.2907 15.438 73.768 15.9565 75.6706 15.9565C76.5842 15.9565 77.3705 15.8941 78.0295 15.7701C78.6845 15.6473 79.3184 15.4255 79.9334 15.1052L79.3276 12.4688C78.8807 12.6513 78.4554 12.7917 78.0537 12.8843C77.4735 13.0188 76.837 13.0864 76.1439 13.0864C75.3839 13.0864 74.784 12.9007 74.3443 12.5292C73.9046 12.1571 73.6703 11.6439 73.6434 10.9902H80.6907V9.19387C80.6907 7.46582 80.2221 6.14206 79.2843 5.22389ZM19.3971 7.04052C19.0848 7.34046 18.9017 7.80972 18.8479 8.45027H22.2358C22.222 7.88585 22.0664 7.43496 21.7665 7.09827C21.4679 6.75962 21.0662 6.59162 20.5622 6.59162C20.0982 6.59162 19.7102 6.74125 19.3971 7.04052ZM20.4211 3.84497C22.1419 3.84497 23.4709 4.30506 24.4088 5.22389C25.346 6.14206 25.8146 7.46582 25.8146 9.19387V10.9902H18.7672C18.7941 11.6439 19.0277 12.1571 19.4681 12.5292C19.9079 12.9007 20.5083 13.0864 21.2676 13.0864C21.9607 13.0864 22.5967 13.0188 23.1782 12.8843C23.5792 12.7917 24.0045 12.6513 24.4515 12.4688L25.0579 15.1052C24.4423 15.4255 23.8082 15.6473 23.1532 15.7701C22.4943 15.8941 21.708 15.9565 20.7945 15.9565C18.8918 15.9565 17.4145 15.438 16.3631 14.4023C15.3104 13.3667 14.784 11.8913 14.784 9.97817C14.784 8.00269 15.2723 6.4866 16.2469 5.42995C17.2215 4.37329 18.6122 3.84497 20.4211 3.84497Z" fill="white"/>
</svg>
