<svg width="96" height="14" viewBox="0 0 96 14" fill="none" xmlns="http://www.w3.org/2000/svg">
<path fill-rule="evenodd" clip-rule="evenodd" d="M89.9528 6.58074H93.172H95.6152V8.86882V13.6579H93.172V12.6811C92.0824 13.472 90.6639 13.9173 88.9864 13.9173C84.419 13.9173 81.9363 10.665 81.9363 7.03437C81.9363 3.30937 84.5517 0 88.8914 0C92.3784 0 94.7853 2.11827 95.0129 4.63288H91.7339C91.5447 3.61189 90.5211 2.64732 88.8727 2.64732C86.4468 2.64732 85.0822 4.72758 85.0822 7.01537C85.0822 9.32246 86.4468 11.327 89.081 11.327C91.0332 11.327 92.0752 10.2113 92.3028 8.86882H89.9528V6.58074ZM72.1377 0.348948L76.9588 9.01886V0.348948H80.0269V13.658H76.8062L72.0044 5.10236V13.658H68.9173V0.348948H72.1377ZM63.2383 13.658H66.3634V0.349017H63.2383V13.658ZM53.7662 5.99597L58.0729 0.348932H61.7887L56.5102 7.00359L61.7887 13.658H58.0729L53.7662 8.03022V13.658H50.6792V0.348932H53.7662V5.99597ZM41.7027 10.9962H40.0451V3.01088H41.7027C44.1991 3.01088 45.6473 4.95013 45.6473 7.00368C45.6473 9.05693 44.1991 10.9962 41.7027 10.9962ZM41.8554 0.349017H36.9581V13.658H41.8554C46.2954 13.658 48.7916 10.4069 48.7916 7.00368C48.7916 3.6002 46.2761 0.349017 41.8554 0.349017ZM28.3253 0.348932H31.4124V10.9961H35.2043V13.658H28.3253V0.348932ZM19.3866 11.2243C16.9476 11.2243 15.4804 9.18979 15.4804 7.00353C15.4804 4.81698 16.9476 2.78243 19.3866 2.78243C21.8069 2.78243 23.2931 4.81698 23.2931 7.00353C23.2931 9.18979 21.8069 11.2243 19.3866 11.2243ZM19.3868 0.00665436C14.947 0.00665436 12.3173 3.35284 12.3173 7.00332C12.3173 10.6538 14.947 14 19.3868 14C23.8074 14 26.4372 10.6538 26.4372 7.00332C26.4372 3.35284 23.8074 0.00665436 19.3868 0.00665436ZM3.91241 11.3003H5.83725C7.34254 11.3003 7.68561 10.3117 7.68561 9.66537C7.68561 9.03805 7.34254 8.03013 5.85599 8.03013H3.91241V11.3003ZM5.76078 2.6114H3.91241V5.76758H5.76078C7.26637 5.76758 7.60915 4.83625 7.60915 4.17064C7.60915 3.58132 7.3235 2.6114 5.76078 2.6114ZM10.6961 4.03733C10.6961 5.84357 9.49582 6.68019 8.58116 6.92749C9.36252 7.1175 10.8107 7.87812 10.8107 9.87437C10.8107 11.2436 10.1436 13.6579 6.48493 13.6579H0.844604V0.348836H6.37067C10.0293 0.348836 10.6961 2.70669 10.6961 4.03733Z" fill="white"/>
</svg>
