<svg width="80" height="26" viewBox="0 0 80 26" fill="none" xmlns="http://www.w3.org/2000/svg">
<path fill-rule="evenodd" clip-rule="evenodd" d="M11.0385 9.23591V11.9923L17.6264 11.9894C17.4243 13.5097 16.9116 14.6228 16.1325 15.402C15.1717 16.3628 13.6719 17.4202 11.0385 17.4202C6.97856 17.4202 3.80326 14.1483 3.80326 10.0883C3.80326 6.02839 6.97856 2.75642 11.0385 2.75642C13.2296 2.75642 14.8289 3.61762 16.0094 4.72487L17.9544 2.77985C16.3082 1.20685 14.1171 0 11.0414 0C5.48172 0 0.806641 4.52861 0.806641 10.0883C0.806641 15.648 5.48172 20.1766 11.0414 20.1766C14.041 20.1766 16.3053 19.1924 18.0775 17.347C19.8995 15.525 20.4648 12.9678 20.4648 10.8997C20.4648 10.2846 20.4179 9.71631 20.3271 9.23591H11.0385ZM66.6092 19.7812V0.741094H63.8265V19.7812H66.6092ZM28.0897 20.1796C31.6809 20.1796 34.6072 17.4232 34.6072 13.6825C34.6072 9.9155 31.6809 7.18545 28.0897 7.18545C24.4984 7.18545 21.5721 9.9155 21.5721 13.6825C21.5721 17.4232 24.4984 20.1796 28.0897 20.1796ZM28.0897 9.74561C30.0581 9.74561 31.7541 11.345 31.7541 13.6825C31.7541 15.9937 30.0581 17.6194 28.0897 17.6194C26.1212 17.6194 24.4252 15.9966 24.4252 13.6825C24.4252 11.345 26.1212 9.74561 28.0897 9.74561ZM42.15 20.1796C45.7413 20.1796 48.6676 17.4232 48.6676 13.6825C48.6676 9.9155 45.7413 7.18545 42.15 7.18545C38.5588 7.18545 35.6325 9.91843 35.6325 13.6825C35.6325 17.4232 38.5588 20.1796 42.15 20.1796ZM42.15 9.74561C44.1185 9.74561 45.8145 11.345 45.8145 13.6825C45.8145 15.9937 44.1185 17.6194 42.15 17.6194C40.1816 17.6194 38.4855 15.9966 38.4855 13.6825C38.4855 11.345 40.1816 9.74561 42.15 9.74561ZM62.1421 7.58089V19.2422C62.1421 24.0403 59.3125 26 55.9673 26C52.8183 26 50.9231 23.8939 50.2084 22.1715L52.6924 21.1374C53.1347 22.1949 54.2185 23.4428 55.9644 23.4428C58.1056 23.4428 59.4326 22.1217 59.4326 19.6347V18.7003H59.333C58.6944 19.4883 57.4641 20.1767 55.9116 20.1767C52.6631 20.1767 49.687 17.347 49.687 13.7059C49.687 10.0385 52.6631 7.18545 55.9116 7.18545C57.4612 7.18545 58.6915 7.87382 59.333 8.63835H59.4326V7.58089H62.1421ZM59.6347 13.7059C59.6347 11.4182 58.1086 9.74561 56.1665 9.74561C54.198 9.74561 52.5489 11.4182 52.5489 13.7059C52.5489 15.9703 54.198 17.6194 56.1665 17.6194C58.1086 17.6194 59.6347 15.9703 59.6347 13.7059ZM77.4533 15.8209L79.6678 17.2972C78.9531 18.3547 77.2307 20.1766 74.2546 20.1766C70.5637 20.1766 67.8073 17.3236 67.8073 13.6796C67.8073 9.8159 70.5872 7.18251 73.9353 7.18251C77.3068 7.18251 78.956 9.8657 79.495 11.3157L79.7908 12.0538L71.1056 15.651C71.7706 16.9545 72.8046 17.6194 74.2546 17.6194C75.7075 17.6194 76.7151 16.9047 77.4533 15.8209ZM70.6369 13.4833L76.4427 11.0726C76.1234 10.2612 75.1626 9.69581 74.0319 9.69581C72.582 9.69581 70.5637 10.9759 70.6369 13.4833Z" fill="white"/>
</svg>
