<svg width="28" height="28" viewBox="0 0 28 28" fill="none" xmlns="http://www.w3.org/2000/svg">
<mask id="mask0" mask-type="alpha" maskUnits="userSpaceOnUse" x="0" y="0" width="28" height="28">
<path d="M13.9999 2.33334C7.67542 2.33334 2.33325 7.67551 2.33325 14C2.33325 20.3245 7.67542 25.6667 13.9999 25.6667C20.3244 25.6667 25.6666 20.3245 25.6666 14C25.6666 7.67551 20.3244 2.33334 13.9999 2.33334ZM13.9999 8.16668C16.0148 8.16668 17.4999 9.65068 17.4999 11.6667C17.4999 13.6827 16.0148 15.1667 13.9999 15.1667C11.9863 15.1667 10.4999 13.6827 10.4999 11.6667C10.4999 9.65068 11.9863 8.16668 13.9999 8.16668ZM8.04292 19.5673C9.08942 18.0273 10.8348 17.0007 12.8333 17.0007H15.1666C17.1663 17.0007 18.9104 18.0273 19.9569 19.5673C18.4659 21.1633 16.3508 22.1667 13.9999 22.1667C11.6491 22.1667 9.53392 21.1633 8.04292 19.5673Z" fill="white"/>
</mask>
<g mask="url(#mask0)">
<rect width="28" height="28" fill="#53D084"/>
</g>
</svg>