<svg width="28" height="28" viewBox="0 0 28 28" fill="none" xmlns="http://www.w3.org/2000/svg">
<g>
<mask id="mask0" mask-type="alpha" maskUnits="userSpaceOnUse" x="0" y="0" width="28" height="28">
<path d="M21.2446 5.2322C19.8418 5.2322 18.7015 6.3095 18.7015 7.63474C18.7015 7.97782 18.7808 8.30361 18.9192 8.60056L16.9305 10.7138C16.2754 10.2891 15.486 10.0373 14.6325 10.0373C13.8798 10.0373 13.184 10.2449 12.5787 10.5812L10.2656 8.39682L10.2422 8.41893C10.4415 8.03644 10.5636 7.61071 10.5636 7.15423C10.5636 5.56182 9.19746 4.27118 7.5119 4.27118C5.82635 4.27118 4.46021 5.56182 4.46021 7.15423C4.46021 8.74663 5.82635 10.0373 7.5119 10.0373C7.99509 10.0373 8.44471 9.92196 8.85058 9.7336L8.82719 9.7557L11.1404 11.9401C10.7823 12.5129 10.5636 13.1712 10.5636 13.8813C10.5636 14.8395 10.9502 15.7063 11.5656 16.381L8.94417 18.8565C8.65731 18.7499 8.34705 18.6864 8.02052 18.6864C6.61877 18.6864 5.47744 19.7637 5.47744 21.089C5.47744 22.4142 6.61877 23.4915 8.02052 23.4915C9.42227 23.4915 10.5636 22.4142 10.5636 21.089C10.5636 20.7805 10.4965 20.4874 10.3836 20.2154L13.2705 17.488C13.6987 17.6322 14.1524 17.7254 14.6325 17.7254C16.8766 17.7254 18.7015 16.0014 18.7015 13.8813C18.7015 13.2701 18.5357 12.7003 18.2661 12.1861L20.4196 9.89601C20.68 9.98058 20.9546 10.0373 21.2446 10.0373C22.6473 10.0373 23.7876 8.95998 23.7876 7.63474C23.7876 6.3095 22.6473 5.2322 21.2446 5.2322ZM14.6325 15.8034C13.5105 15.8034 12.5981 14.9413 12.5981 13.8813C12.5981 12.8213 13.5105 11.9593 14.6325 11.9593C15.7545 11.9593 16.667 12.8213 16.667 13.8813C16.667 14.9413 15.7545 15.8034 14.6325 15.8034Z" fill="white"/>
</mask>
<g mask="url(#mask0)">
<rect width="28" height="28" fill="#53D084"/>
</g>
</g>
</svg>