<svg width="28" height="28" viewBox="0 0 28 28" fill="none" xmlns="http://www.w3.org/2000/svg">
<g>
<mask id="mask0" mask-type="alpha" maskUnits="userSpaceOnUse" x="0" y="0" width="28" height="28">
<path d="M22.4907 4.95877L10.08 9.44227V16.3827L10.813 16.6474L9.70853 18.8822C9.45373 19.3968 9.43315 19.9957 9.64973 20.5271C9.86827 21.0585 10.3014 21.468 10.8414 21.6504L14.8437 22.9999C15.0446 23.0673 15.2514 23.1 15.4553 23.1C16.1814 23.1 16.8772 22.6895 17.2163 22.0054L18.4933 19.4216L22.4907 20.8662C23.1277 21.0972 23.8 20.6183 23.8 19.9332V5.89176C23.8 5.20664 23.1277 4.72775 22.4907 4.95877ZM15.4631 21.119L11.4618 19.7696L12.6721 17.3196L16.6332 18.7513L15.4631 21.119ZM6.15995 16.3827H8.11995V9.44227H6.15995C5.07901 9.44227 4.19995 10.3316 4.19995 11.4252V14.3997C4.19995 15.4933 5.07901 16.3827 6.15995 16.3827Z" fill="white"/>
</mask>
<g mask="url(#mask0)">
<rect width="28" height="28" fill="#53D084"/>
</g>
</g>
</svg>