<svg width="28" height="28" viewBox="0 0 28 28" fill="none" xmlns="http://www.w3.org/2000/svg">
<g opacity="0.4">
<mask id="mask0" mask-type="alpha" maskUnits="userSpaceOnUse" x="0" y="0" width="28" height="28">
<path d="M21.35 8.75C21.35 7.5908 20.4092 6.65 19.25 6.65H18.2V3.5H16.1V6.65H15.05H12.95H11.9V3.5H9.8V6.65H8.75C7.5908 6.65 6.65 7.5908 6.65 8.75V9.8H3.5V11.9H6.65V12.95V15.05V16.1H3.5V18.2H6.65V19.25C6.65 20.4092 7.5908 21.35 8.75 21.35H9.8V24.5H11.9V21.35H12.95H15.05H16.1V24.5H18.2V21.35H19.25C20.4092 21.35 21.35 20.4092 21.35 19.25V18.2H24.5V16.1H21.35V15.05V12.95V11.9H24.5V9.8H21.35V8.75ZM17.15 17.15H10.85V10.85H17.15V17.15Z" fill="white"/>
</mask>
<g mask="url(#mask0)">
<rect width="28" height="28" fill="white"/>
</g>
</g>
</svg>