<svg width="28" height="28" viewBox="0 0 28 28" fill="none" xmlns="http://www.w3.org/2000/svg">
<g opacity="0.4">
<mask id="mask0" mask-type="alpha" maskUnits="userSpaceOnUse" x="0" y="0" width="28" height="28">
<path d="M22.6333 5.60001H7.93325C6.7751 5.60001 5.83325 6.56279 5.83325 7.74667V13.1133H7.93325V9.89334L14.6533 15.0453C14.8402 15.1881 15.0617 15.26 15.2833 15.26C15.5048 15.26 15.7264 15.1881 15.9133 15.0453L22.6333 9.89334V19.5533H14.2333V21.7H22.6333C23.7914 21.7 24.7333 20.7372 24.7333 19.5533V7.74667C24.7333 6.56279 23.7914 5.60001 22.6333 5.60001ZM15.2833 12.845L8.63255 7.74667H21.934L15.2833 12.845Z" fill="white"/>
<path d="M3.7334 14H10.8112V16.1H3.7334V14ZM5.75562 17.15H11.8223V19.25H5.75562V17.15ZM8.78895 20.3H12.8334V22.4H8.78895V20.3Z" fill="white"/>
</mask>
<g mask="url(#mask0)">
<rect width="28" height="28" fill="white"/>
</g>
</g>
</svg>
