<svg width="28" height="28" viewBox="0 0 28 28" fill="none" xmlns="http://www.w3.org/2000/svg">
<g opacity="0.4">
<mask id="mask0" mask-type="alpha" maskUnits="userSpaceOnUse" x="0" y="0" width="28" height="28">
<path d="M10.6228 15.2875C12.6808 15.2875 14.2334 13.7172 14.2334 11.6358C14.2334 9.55433 12.6808 7.98411 10.6228 7.98411C8.56482 7.98411 7.0123 9.55433 7.0123 11.6358C7.0123 13.7172 8.56482 15.2875 10.6228 15.2875ZM11.6544 16.2766H9.59124C6.74718 16.2766 4.43335 18.6168 4.43335 21.4932V22.5366H5.46493H6.49651H14.7491H15.7807H16.8123V21.4932C16.8123 18.6168 14.4985 16.2766 11.6544 16.2766ZM21.3141 5.46341L19.8555 6.93869C21.2182 8.31902 21.9702 10.1532 21.9702 12.1032C21.9702 14.0532 21.2182 15.8874 19.8555 17.2677L21.3141 18.743C23.0678 16.9683 24.0334 14.6103 24.0334 12.1032C24.0334 9.59607 23.0678 7.23813 21.3141 5.46341Z" fill="white"/>
<path d="M18.4086 8.19513L17.0334 9.69927C17.5849 10.2994 17.8883 11.0993 17.8883 11.9512C17.8883 12.8031 17.5849 13.603 17.0334 14.2032L18.4086 15.7073C19.3267 14.7046 19.8334 13.3714 19.8334 11.9512C19.8334 10.531 19.3267 9.19789 18.4086 8.19513Z" fill="white"/>
</mask>
<g mask="url(#mask0)">
<rect width="28" height="28" fill="white"/>
</g>
</g>
</svg>
