<svg width="28" height="28" viewBox="0 0 28 28" fill="none" xmlns="http://www.w3.org/2000/svg">
<g opacity="0.4">
<mask id="mask0" mask-type="alpha" maskUnits="userSpaceOnUse" x="0" y="0" width="28" height="28">
<path d="M9.46745 18.9L10.6925 17.2991L6.74893 14L10.6925 10.7009L9.46745 9.1L4.56745 13.1996C4.33519 13.3943 4.19995 13.6884 4.19995 14C4.19995 14.3116 4.33519 14.6057 4.56745 14.8004L9.46745 18.9ZM18.5325 9.1L17.3075 10.7009L21.251 14L17.3075 17.2991L18.5325 18.9L23.4325 14.8004C23.6647 14.6057 23.8 14.3116 23.8 14C23.8 13.6884 23.6647 13.3943 23.4325 13.1996L18.5325 9.1Z" fill="white"/>
<path d="M16.9385 5.32714L12.9895 23.1L11.0608 22.6715L15.0098 4.8986L16.9385 5.32714Z" fill="white"/>
</mask>
<g mask="url(#mask0)">
<rect width="28" height="28" fill="white"/>
</g>
</g>
</svg>