<svg width="28" height="28" viewBox="0 0 28 28" fill="none" xmlns="http://www.w3.org/2000/svg">
<g opacity="0.4">
<mask id="mask0" mask-type="alpha" maskUnits="userSpaceOnUse" x="0" y="0" width="28" height="28">
<path d="M6.39879 10.8312C6.80682 9.86287 7.39146 8.99504 8.13444 8.25206C8.88148 7.50604 9.7493 6.9214 10.7146 6.51641C12.6786 5.68817 14.9583 5.67701 16.9365 6.4748C16.9842 7.83997 18.0896 8.92501 19.4659 8.92501C20.8727 8.92501 22.0034 7.7943 22.0034 6.38751C22.0034 4.98072 20.8727 3.85001 19.4659 3.85001C18.7666 3.85001 18.1342 4.13015 17.6765 4.58588C15.209 3.59829 12.3751 3.61351 9.92693 4.64577C8.71908 5.15327 7.63303 5.88407 6.69923 6.81685C5.76949 7.74558 5.0397 8.83163 4.52916 10.0425C4.00136 11.294 3.7334 12.6257 3.7334 14H5.7634C5.7634 12.8977 5.97756 11.832 6.39879 10.8312ZM21.367 17.1688C20.96 18.1351 20.3753 19.004 19.6313 19.748C18.8874 20.4919 18.0185 21.0766 17.0512 21.4836C15.0862 22.3118 12.8065 22.323 10.8293 21.5252C10.7826 20.16 9.67724 19.075 8.3009 19.075C6.89411 19.075 5.7634 20.2057 5.7634 21.6125C5.7634 23.0193 6.89411 24.15 8.3009 24.15C9.00023 24.15 9.63258 23.8699 10.0903 23.4141C11.2951 23.8983 12.569 24.15 13.8834 24.15C15.2577 24.15 16.5884 23.882 17.8389 23.3553C19.0487 22.8447 20.1358 22.1139 21.0666 21.1832C21.9973 20.2524 22.7281 19.1664 23.2387 17.9565C23.7654 16.705 24.0334 15.3743 24.0334 14H22.0034C22.0034 15.1013 21.7892 16.167 21.367 17.1688Z" fill="white"/>
<path d="M13.8833 9.45C11.3746 9.45 9.33325 11.4914 9.33325 14C9.33325 16.5086 11.3746 18.55 13.8833 18.55C16.3919 18.55 18.4333 16.5086 18.4333 14C18.4333 11.4914 16.3919 9.45 13.8833 9.45Z" fill="white"/>
</mask>
<g mask="url(#mask0)">
<rect width="28" height="28" fill="white"/>
</g>
</g>
</svg>